<?xml version="1.0" standalone="no"?>
<!DOCTYPE svg PUBLIC "-//W3C//DTD SVG 20010904//EN"
 "http://www.w3.org/TR/2001/REC-SVG-20010904/DTD/svg10.dtd">
<svg version="1.0" xmlns="http://www.w3.org/2000/svg"
 width="640.000000pt" height="640.000000pt" viewBox="0 0 640.000000 640.000000"
 preserveAspectRatio="xMidYMid meet">
<metadata>
Created by potrace 1.11, written by Peter Selinger 2001-2013
</metadata>
<g transform="translate(0.000000,640.000000) scale(0.100000,-0.100000)"
fill="#000000" stroke="none">
<path d="M1768 3770 c-102 -31 -183 -106 -209 -193 -30 -98 -20 -172 33 -252
90 -136 299 -170 370 -61 13 20 25 36 28 36 7 0 3 -203 -4 -260 -11 -82 -17
-105 -40 -156 -29 -64 -70 -94 -126 -94 -59 0 -105 25 -125 67 -20 41 -32 123
-30 188 1 25 -2 48 -7 51 -5 3 -30 7 -55 8 l-45 1 5 -70 c10 -157 116 -259
267 -258 173 0 312 125 366 329 31 115 27 267 -9 371 -82 236 -241 348 -419
293z m167 -34 c44 -47 56 -104 54 -256 -1 -110 -4 -135 -23 -177 -54 -116
-188 -97 -220 31 -10 40 -13 264 -3 306 20 90 57 130 120 130 32 0 46 -6 72
-34z"/>
<path d="M2613 3780 c-92 -21 -191 -117 -253 -245 -83 -172 -83 -347 1 -533
39 -87 135 -181 207 -204 156 -49 295 30 382 217 46 97 61 165 61 270 -1 146
-59 298 -155 399 -79 83 -159 115 -243 96z m78 -9 c36 -2 72 -54 88 -131 15
-69 12 -642 -4 -717 -21 -97 -64 -140 -129 -128 -37 7 -56 21 -77 55 -45 71
-53 140 -53 425 1 277 11 355 57 438 23 40 60 67 86 62 9 -2 23 -4 32 -4z"/>
<path d="M3566 3778 c3 -4 14 -8 24 -8 21 0 66 -49 75 -82 3 -13 12 -39 20
-58 8 -19 62 -183 120 -365 59 -181 116 -359 128 -395 11 -36 25 -69 29 -75 5
-5 35 -10 68 -10 57 -1 61 0 66 24 3 14 11 44 16 66 6 22 12 49 14 60 9 49 66
312 71 325 5 16 18 -20 107 -300 l55 -175 56 2 c31 0 59 4 63 8 6 5 59 220 67
270 2 11 13 63 25 115 12 52 23 106 26 120 25 125 69 282 95 335 34 71 85 123
130 132 70 14 27 20 -136 19 -171 -1 -217 -7 -153 -20 18 -4 43 -19 56 -34 57
-65 58 -131 7 -362 -13 -58 -26 -116 -29 -130 -13 -68 -29 -136 -35 -147 -4
-7 -35 83 -70 200 -142 481 -129 424 -103 456 11 14 29 23 50 23 18 1 30 4 26
7 -9 9 -424 8 -424 -1 0 -4 7 -8 15 -8 19 0 38 -38 64 -130 12 -41 26 -86 31
-100 5 -14 22 -72 39 -130 l31 -105 -24 -109 c-13 -59 -26 -110 -29 -112 -2
-2 -38 110 -80 248 -43 139 -84 273 -92 298 -8 25 -16 60 -19 79 -5 37 9 75
25 66 5 -4 9 -2 9 3 0 5 -91 9 -209 8 -116 0 -208 -4 -205 -8z"/>
<path d="M3390 3770 c-24 -13 -149 -38 -225 -45 -38 -4 -72 -9 -74 -10 -1 -2
15 -9 37 -14 77 -21 75 -13 75 -464 -1 -366 -2 -399 -18 -417 -11 -12 -31 -20
-51 -20 -18 0 -35 -3 -38 -8 -6 -9 400 -9 410 1 4 4 -7 7 -24 7 -21 0 -37 8
-50 24 -18 24 -19 46 -19 486 0 253 -2 462 -4 465 -2 2 -11 0 -19 -5z"/>
</g>
</svg>
