<svg xmlns="http://www.w3.org/2000/svg" viewBox="0 0 181.47 173.4"><defs><style>.cls-1{fill:#231f20;fill-rule:evenodd;}</style></defs><title>Asset 1</title><g id="Layer_2" data-name="Layer 2"><g id="Layer_1-2" data-name="Layer 1"><polygon class="cls-1" points="20.83 141.71 13.73 141.71 13.73 144.52 20.25 144.52 20.25 146.9 13.73 146.9 13.73 150.35 21.14 150.35 21.14 152.72 10.99 152.72 10.99 139.35 20.83 139.35 20.83 141.71 20.83 141.71"/><path class="cls-1" d="M29.81,149.09l1.34,1.26a3.25,3.25,0,0,1-1.51.36c-1.51,0-3.64-.93-3.64-4.67s2.13-4.67,3.64-4.67,3.63.93,3.63,4.67a6,6,0,0,1-.61,2.87l-1.42-1.32-1.44,1.5Zm6.32,3.09-1.46-1.37a7.5,7.5,0,0,0,1.4-4.77c0-6.28-4.66-7-6.43-7s-6.43.76-6.43,7,4.66,7,6.43,7a6.91,6.91,0,0,0,3.43-.9l1.59,1.51,1.47-1.51Z"/><path class="cls-1" d="M49.22,148c0,3.51-2.13,5-5.5,5a5.72,5.72,0,0,1-4.25-1.62,4.87,4.87,0,0,1-1-3.24v-8.87h2.85V148c0,1.87,1.08,2.69,2.38,2.69,1.92,0,2.7-.93,2.7-2.55v-8.81h2.85V148Z"/><path class="cls-1" d="M56.7,142.37h0l1.66,5.29H55l1.72-5.29ZM54.24,150h4.94l.86,2.76h3l-4.71-13.38H55.14l-4.77,13.38h2.94l.93-2.76Z"/><polygon class="cls-1" points="68.05 150.3 74.7 150.3 74.7 152.72 65.25 152.72 65.25 139.35 68.05 139.35 68.05 150.3 68.05 150.3"/><polygon class="cls-1" points="85.29 146.72 85.29 152.72 82.5 152.72 82.5 139.35 85.29 139.35 85.29 144.41 90.51 144.41 90.51 139.35 93.3 139.35 93.3 152.72 90.51 152.72 90.51 146.72 85.29 146.72 85.29 146.72"/><path class="cls-1" d="M98.63,146c0-3.74,2.13-4.67,3.63-4.67s3.64.93,3.64,4.67-2.12,4.67-3.64,4.67-3.63-.93-3.63-4.67Zm-2.79,0c0,6.28,4.66,7,6.42,7s6.43-.76,6.43-7-4.66-7-6.43-7-6.42.76-6.42,7Z"/><path class="cls-1" d="M122,148c0,3.51-2.13,5-5.5,5a5.73,5.73,0,0,1-4.25-1.62,4.85,4.85,0,0,1-1-3.24v-8.87h2.85V148c0,1.87,1.08,2.69,2.39,2.69,1.92,0,2.7-.93,2.7-2.55v-8.81H122V148Z"/><path class="cls-1" d="M127.14,148.6c0,.74.4,2.16,2.84,2.16,1.32,0,2.8-.32,2.8-1.74,0-1-1-1.32-2.42-1.65l-1.44-.34c-2.17-.5-4.25-1-4.25-3.92,0-1.49.81-4.12,5.14-4.12,4.1,0,5.2,2.68,5.22,4.32h-2.69c-.07-.59-.3-2-2.74-2-1.06,0-2.33.39-2.33,1.6,0,1,.86,1.26,1.41,1.39l3.26.8c1.83.45,3.5,1.2,3.5,3.6,0,4-4.1,4.38-5.27,4.38-4.88,0-5.72-2.81-5.72-4.47Z"/><polygon class="cls-1" points="140.54 152.72 137.76 152.72 137.76 139.35 140.54 139.35 140.54 152.72 140.54 152.72"/><polygon class="cls-1" points="151.71 139.35 154.31 139.35 154.31 152.72 151.52 152.72 146.06 143.18 146.02 143.18 146.02 152.72 143.41 152.72 143.41 139.35 146.36 139.35 151.66 148.66 151.71 148.66 151.71 139.35 151.71 139.35"/><path class="cls-1" d="M163.66,145.51h5.58v7.21h-1.86l-.28-1.67a4.94,4.94,0,0,1-4.17,2c-3.22,0-6.14-2.31-6.14-7,0-3.65,2-7.1,6.54-7.08,4.11,0,5.73,2.66,5.87,4.51H166.4a2.94,2.94,0,0,0-2.92-2.2c-2,0-3.84,1.38-3.84,4.8,0,3.65,2,4.6,3.89,4.6a3.3,3.3,0,0,0,3.24-2.94h-3.11v-2.25Z"/><path class="cls-1" d="M13.19,166.36c0-3.74,2.12-4.68,3.63-4.68s3.63.93,3.63,4.68S18.33,171,16.82,171s-3.63-.94-3.63-4.68Zm-2.79,0c0,6.28,4.66,7,6.43,7s6.43-.77,6.43-7-4.66-7-6.43-7-6.43.76-6.43,7Z"/><path class="cls-1" d="M30.9,165.91V162h2.22c1.73,0,2.46.54,2.46,1.85,0,.6,0,2.08-2.09,2.08Zm0,2.31h3.2A4.1,4.1,0,0,0,38.37,164c0-2.62-1.56-4.29-4.15-4.29H28.11V173H30.9v-4.83Z"/><path class="cls-1" d="M46,165.91V162h2.21c1.73,0,2.46.54,2.46,1.85,0,.6,0,2.08-2.08,2.08Zm0,2.31h3.2A4.1,4.1,0,0,0,53.42,164c0-2.62-1.56-4.29-4.15-4.29H43.16V173H46v-4.83Z"/><path class="cls-1" d="M60.41,166.36c0-3.74,2.12-4.68,3.63-4.68s3.63.93,3.63,4.68S65.55,171,64,171s-3.63-.94-3.63-4.68Zm-2.79,0c0,6.28,4.65,7,6.43,7s6.42-.77,6.42-7-4.66-7-6.42-7-6.43.76-6.43,7Z"/><path class="cls-1" d="M78.07,165.55V162h3.48c1.64,0,2,1,2,1.76,0,1.32-.7,1.83-2.16,1.83ZM75.33,173h2.75v-5.24H81c2.07,0,2.18.71,2.18,2.53a9,9,0,0,0,.29,2.7h3.09v-.36c-.6-.22-.6-.71-.6-2.65,0-2.51-.6-2.91-1.69-3.4a3.19,3.19,0,0,0,2.06-3.18c0-1.16-.65-3.78-4.21-3.78H75.33V173Z"/><polygon class="cls-1" points="96.71 173.04 93.92 173.04 93.92 162.03 89.88 162.03 89.88 159.67 100.76 159.67 100.76 162.03 96.71 162.03 96.71 173.04 96.71 173.04"/><path class="cls-1" d="M115.75,168.36c0,3.52-2.12,5-5.5,5a5.75,5.75,0,0,1-4.25-1.63,4.83,4.83,0,0,1-1-3.24v-8.87h2.85v8.68c0,1.86,1.08,2.69,2.38,2.69,1.92,0,2.7-.94,2.7-2.56v-8.81h2.85v8.7Z"/><polygon class="cls-1" points="129.27 159.67 131.88 159.67 131.88 173.04 129.09 173.04 123.63 163.5 123.6 163.5 123.6 173.04 120.98 173.04 120.98 159.67 123.92 159.67 129.24 168.98 129.27 168.98 129.27 159.67 129.27 159.67"/><polygon class="cls-1" points="139.77 173.04 136.97 173.04 136.97 159.67 139.77 159.67 139.77 173.04 139.77 173.04"/><polygon class="cls-1" points="150.68 173.04 147.88 173.04 147.88 162.03 143.85 162.03 143.85 159.67 154.72 159.67 154.72 162.03 150.68 162.03 150.68 173.04 150.68 173.04"/><polygon class="cls-1" points="165.28 173.04 162.49 173.04 162.49 167.99 157.87 159.67 161.16 159.67 163.94 165.48 166.59 159.67 169.75 159.67 165.28 168.03 165.28 173.04 165.28 173.04"/><path class="cls-1" d="M90.06,0,0,44.36V65.19H10.08v62.5H169.36V65.19h12.1V44.36L90.06,0Zm59.82,108.87H29.57V51.75L90.06,20.84l59.82,30.91v57.12Z"/><polygon class="cls-1" points="117.61 71.91 61.83 71.91 61.83 51.75 117.61 51.75 117.61 71.91 117.61 71.91"/><polygon class="cls-1" points="117.61 100.82 61.83 100.82 61.83 80.65 117.61 80.65 117.61 100.82 117.61 100.82"/></g></g></svg>